<?xml version="1.0" encoding="utf-8"?>
<!-- Generator: Adobe Illustrator 24.1.1, SVG Export Plug-In . SVG Version: 6.00 Build 0)  -->
<svg version="1.1" id="Layer_1" xmlns="http://www.w3.org/2000/svg" xmlns:xlink="http://www.w3.org/1999/xlink" x="0px" y="0px"
	 viewBox="0 0 512 512" style="enable-background:new 0 0 512 512;" xml:space="preserve">
<g>
	<path d="M180.7,60.2H90.4C40.4,60.3,0,100.7,0,150.6v271.1C0,471.6,40.4,512,90.4,512h271.1c49.9,0,90.3-40.4,90.4-90.4v-90.4
		c0-16.6-13.5-30.1-30.1-30.1s-30.1,13.5-30.1,30.1l0,90.4c0,16.6-13.5,30.1-30.1,30.1H90.4c-16.6,0-30.1-13.5-30.1-30.1V150.6
		c0-16.6,13.5-30.1,30.1-30.1h90.4c16.6,0,30.1-13.5,30.1-30.1C210.8,73.7,197.3,60.2,180.7,60.2L180.7,60.2z"/>
	<path d="M391.5,30.1v30.1c33.2,0.1,60.2,27,60.2,60.2c-0.1,33.2-27,60.2-60.2,60.2c-33.2-0.1-60.2-27-60.2-60.2
		c0.1-33.3,27-60.2,60.2-60.2V30.1V0C325,0,271.1,53.9,271.1,120.5c0,66.5,53.9,120.4,120.5,120.5c66.5,0,120.4-53.9,120.5-120.5
		C512,53.9,458.1,0,391.5,0V30.1z"/>
</g>
</svg>
